<?xml version="1.0" standalone="no"?>
<!DOCTYPE svg PUBLIC "-//W3C//DTD SVG 20010904//EN"
 "http://www.w3.org/TR/2001/REC-SVG-20010904/DTD/svg10.dtd">
<svg version="1.0" xmlns="http://www.w3.org/2000/svg"
 width="1000.000000pt" height="1000.000000pt" viewBox="0 0 1000.000000 1000.000000"
 preserveAspectRatio="xMidYMid meet">
<metadata>
Created by potrace 1.14, written by Peter Selinger 2001-2017
</metadata>
<g transform="translate(0.000000,1000.000000) scale(0.100000,-0.100000)"
fill="#000000" stroke="none">
<path d="M5386 8778 c-19 -29 -71 -96 -116 -148 -106 -122 -96 -111 -300 -350
-96 -113 -177 -207 -180 -210 -3 -3 -30 -34 -60 -70 -77 -90 -51 -60 -364
-424 -28 -33 -71 -83 -95 -110 -24 -28 -53 -62 -65 -76 -11 -14 -48 -57 -81
-95 -33 -38 -70 -81 -81 -95 -79 -92 -180 -210 -203 -235 -14 -16 -49 -57 -76
-90 -28 -33 -58 -69 -69 -80 -10 -11 -50 -58 -90 -105 -39 -47 -80 -94 -91
-106 -11 -11 -40 -44 -65 -74 -25 -29 -146 -171 -269 -314 -123 -144 -245
-285 -270 -315 -97 -115 -243 -281 -245 -281 -3 0 -50 68 -231 335 -71 105
-170 251 -220 325 -200 295 -613 905 -760 1122 -60 90 -112 165 -115 168 -3 3
-9 13 -15 22 -12 21 -167 249 -178 263 -4 6 -61 89 -125 185 -157 234 -374
554 -378 559 -7 7 -12 -3 -17 -34 -15 -88 -49 -271 -52 -275 -2 -3 -6 -27 -9
-55 -4 -27 -9 -57 -12 -66 -2 -10 -6 -30 -8 -46 -2 -16 -34 -175 -70 -355 -72
-357 -79 -428 -47 -520 29 -83 30 -85 364 -591 172 -259 381 -575 464 -702 84
-126 156 -235 161 -240 5 -6 11 -15 13 -20 2 -6 34 -55 70 -110 254 -385 418
-634 517 -785 64 -96 172 -260 241 -365 69 -104 128 -195 131 -200 9 -19 244
-370 250 -375 4 -3 11 -13 16 -23 9 -15 35 11 174 170 91 103 179 204 196 223
18 19 166 188 329 375 164 187 325 371 359 409 34 38 69 78 79 90 92 106 118
135 158 180 26 28 62 69 80 91 67 80 85 96 101 90 15 -6 17 -163 17 -1858 0
-1019 0 -1875 0 -1904 l1 -51 654 0 653 1 0 3586 c1 1972 -2 3591 -4 3598 -10
26 -34 12 -67 -39z"/>
<path d="M6099 8588 c-4 -9 -3 -1050 1 -1053 5 -3 115 -15 185 -20 740 -55
1091 -258 1189 -687 57 -251 32 -475 -76 -678 -125 -236 -361 -409 -633 -465
-149 -30 -207 -36 -475 -51 -69 -3 -136 -8 -150 -9 -14 -2 -30 -4 -37 -4 -9
-1 -12 -131 -12 -531 0 -489 2 -530 17 -530 269 -3 553 -9 572 -13 14 -3 52
-8 85 -11 33 -3 71 -8 85 -11 13 -2 42 -7 65 -11 215 -31 493 -133 663 -241
220 -141 356 -404 346 -672 -1 -47 -5 -95 -7 -106 -46 -192 -97 -285 -228
-412 -224 -216 -448 -319 -824 -377 -53 -8 -109 -16 -150 -21 -22 -2 -83 -10
-135 -17 -52 -7 -184 -12 -292 -12 l-198 0 0 -512 c0 -401 3 -513 13 -516 20
-6 595 -1 697 6 106 7 185 14 245 21 22 2 63 7 90 11 28 3 111 17 185 30 74
14 149 27 165 30 49 9 273 70 375 104 81 26 125 43 265 100 72 30 284 137 353
179 381 229 611 505 727 871 22 68 62 225 70 275 2 11 8 47 14 80 23 136 31
300 20 420 -12 124 -17 156 -43 251 -90 330 -249 543 -616 827 -30 24 -268
176 -366 235 -88 53 -395 192 -423 192 -29 0 -15 21 32 45 102 53 253 147 342
212 102 76 279 249 346 338 146 194 242 412 285 643 2 12 6 34 9 50 34 184 23
497 -25 699 -154 651 -693 1052 -1660 1237 -370 70 -464 83 -666 91 -265 10
-424 15 -425 13z"/>
</g>
</svg>
